{
  "accessors": [
    {
      "bufferView": 2,
      "componentType": 5126,
      "count": 12017,
      "max": [
        4.107605457305908,
        9.15831184387207,
        5.362655162811279
      ],
      "min": [
        -4.107606410980225,
        -3.7547805309295654,
        0.994779109954834
      ],
      "type": "VEC3"
    },
    {
      "bufferView": 2,
      "byteOffset": 144204,
      "componentType": 5126,
      "count": 12017,
      "max": [
        1.0,
        1.0,
        1.0
      ],
      "min": [
        -1.0,
        -1.0,
        -1.0
      ],
      "type": "VEC3"
    },
    {
      "bufferView": 3,
      "componentType": 5126,
      "count": 12017,
      "max": [
        1.0,
        1.0,
        1.0,
        1.0
      ],
      "min": [
        -1.0,
        -1.0,
        -1.0,
        -1.0
      ],
      "type": "VEC4"
    },
    {
      "bufferView": 1,
      "componentType": 5126,
      "count": 12017,
      "max": [
        0.9989193081855774,
        0.9978103637695313
      ],
      "min": [
        0.003095458261668682,
        0.0009124210337176919
      ],
      "type": "VEC2"
    },
    {
      "bufferView": 0,
      "componentType": 5125,
      "count": 31434,
      "type": "SCALAR"
    },
    {
      "bufferView": 2,
      "byteOffset": 288408,
      "componentType": 5126,
      "count": 86,
      "max": [
        0.38111746311187744,
        6.69547700881958,
        4.698485851287842
      ],
      "min": [
        -0.38111746311187744,
        4.231823921203613,
        3.020409345626831
      ],
      "type": "VEC3"
    },
    {
      "bufferView": 2,
      "byteOffset": 289440,
      "componentType": 5126,
      "count": 86,
      "max": [
        0.995374321937561,
        0.43440011143684387,
        0.9171198606491089
      ],
      "min": [
        -0.995374321937561,
        -0.8734685182571411,
        0.033175162971019745
      ],
      "type": "VEC3"
    },
    {
      "bufferView": 1,
      "byteOffset": 96136,
      "componentType": 5126,
      "count": 86,
      "max": [
        0.6014589667320251,
        0.9755129814147949
      ],
      "min": [
        0.022281426936388016,
        0.016503512859344482
      ],
      "type": "VEC2"
    },
    {
      "bufferView": 0,
      "byteOffset": 125736,
      "componentType": 5125,
      "count": 348,
      "type": "SCALAR"
    }
  ],
  "asset": {
    "extras": {
      "author": "dimal965 (https://sketchfab.com/dimal965)",
      "license": "CC-BY-4.0 (http://creativecommons.org/licenses/by/4.0/)",
      "source": "https://sketchfab.com/3d-models/hal-tejas-fd95c85e2452490cbe32f80175498441",
      "title": "HAL Tejas"
    },
    "generator": "Sketchfab-15.32.0",
    "version": "2.0"
  },
  "bufferViews": [
    {
      "buffer": 0,
      "byteLength": 127128,
      "name": "floatBufferViews",
      "target": 34963
    },
    {
      "buffer": 0,
      "byteLength": 96824,
      "byteOffset": 127128,
      "byteStride": 8,
      "name": "floatBufferViews",
      "target": 34962
    },
    {
      "buffer": 0,
      "byteLength": 290472,
      "byteOffset": 223952,
      "byteStride": 12,
      "name": "floatBufferViews",
      "target": 34962
    },
    {
      "buffer": 0,
      "byteLength": 192272,
      "byteOffset": 514424,
      "byteStride": 16,
      "name": "floatBufferViews",
      "target": 34962
    }
  ],
  "buffers": [
    {
      "byteLength": 706696,
      "uri": "scene.bin"
    }
  ],
  "extensionsUsed": [
    "KHR_materials_specular"
  ],
  "images": [
    {
      "uri": "textures/HAL_Tejas_baseColor.png"
    },
    {
      "uri": "textures/HAL_Tejas_metallicRoughness.png"
    },
    {
      "uri": "textures/HAL_Tejas_normal.png"
    }
  ],
  "materials": [
    {
      "doubleSided": true,
      "extensions": {
        "KHR_materials_specular": {
          "specularColorFactor": [
            1.0,
            1.0,
            1.0
          ],
          "specularFactor": 0.0
        }
      },
      "name": "HAL_Tejas",
      "normalTexture": {
        "index": 2
      },
      "pbrMetallicRoughness": {
        "baseColorTexture": {
          "index": 0
        },
        "metallicRoughnessTexture": {
          "index": 1
        }
      }
    },
    {
      "alphaMode": "BLEND",
      "doubleSided": true,
      "extensions": {
        "KHR_materials_specular": {
          "specularColorFactor": [
            1.0,
            1.0,
            1.0
          ],
          "specularFactor": 1.0
        }
      },
      "name": "HAL_Tejas_glass",
      "pbrMetallicRoughness": {
        "baseColorFactor": [
          0.152941,
          0.317647,
          0.286275,
          0.23951981707317074
        ],
        "roughnessFactor": 0.0
      }
    }
  ],
  "meshes": [
    {
      "name": "body_HAL_Tejas_0",
      "primitives": [
        {
          "attributes": {
            "NORMAL": 1,
            "POSITION": 0,
            "TANGENT": 2,
            "TEXCOORD_0": 3
          },
          "indices": 4,
          "material": 0,
          "mode": 4
        }
      ]
    },
    {
      "name": "glass_HAL_Tejas_glass_0",
      "primitives": [
        {
          "attributes": {
            "NORMAL": 6,
            "POSITION": 5,
            "TEXCOORD_0": 7
          },
          "indices": 8,
          "material": 1,
          "mode": 4
        }
      ]
    }
  ],
  "nodes": [
    {
      "children": [
        1
      ],
      "matrix": [
        1.0,
        0.0,
        0.0,
        0.0,
        0.0,
        2.220446049250313e-16,
        -1.0,
        0.0,
        0.0,
        1.0,
        2.220446049250313e-16,
        0.0,
        0.0,
        0.0,
        0.0,
        1.0
      ],
      "name": "Sketchfab_model"
    },
    {
      "children": [
        2
      ],
      "matrix": [
        1.0,
        0.0,
        0.0,
        0.0,
        0.0,
        0.0,
        1.0,
        0.0,
        0.0,
        -1.0,
        0.0,
        0.0,
        0.0,
        0.0,
        0.0,
        1.0
      ],
      "name": "d3a8b3e7ba2944dfbfed634377eb53f1.fbx"
    },
    {
      "children": [
        3,
        6
      ],
      "name": "RootNode"
    },
    {
      "children": [
        4
      ],
      "matrix": [
        -0.9999999999999887,
        1.2246469849340659e-16,
        -1.5099580265055077e-07,
        0.0,
        -1.5099580265055077e-07,
        -4.440892098500626e-16,
        0.9999999999999887,
        0.0,
        1.2246464555384738e-16,
        1.0,
        3.3306690738754696e-16,
        0.0,
        0.01569030061364174,
        2.007999897003174,
        0.5923957824707031,
        1.0
      ],
      "name": "body"
    },
    {
      "children": [
        5
      ],
      "matrix": [
        1.0,
        0.0,
        -0.0,
        0.0,
        0.0,
        1.0,
        0.0,
        0.0,
        0.0,
        0.0,
        1.0,
        0.0,
        0.0,
        0.0,
        -3.007781982421875,
        1.0
      ],
      "name": "Object_4"
    },
    {
      "mesh": 0,
      "name": "body_HAL_Tejas_0"
    },
    {
      "children": [
        7
      ],
      "matrix": [
        -0.9999999999999887,
        1.2246469849340659e-16,
        -1.5099580265055077e-07,
        0.0,
        -1.5099580265055077e-07,
        -4.440892098500626e-16,
        0.9999999999999887,
        0.0,
        1.2246464555384738e-16,
        1.0,
        3.3306690738754696e-16,
        0.0,
        0.015689443796873093,
        2.2862930297851563,
        6.658442974090576,
        1.0
      ],
      "name": "glass"
    },
    {
      "children": [
        8
      ],
      "matrix": [
        1.0,
        0.0,
        -0.0,
        0.0,
        0.0,
        1.0,
        0.0,
        0.0,
        0.0,
        0.0,
        1.0,
        0.0,
        0.0,
        -6.066046714782715,
        -3.28566837310791,
        1.0
      ],
      "name": "Object_7"
    },
    {
      "mesh": 1,
      "name": "glass_HAL_Tejas_glass_0"
    }
  ],
  "samplers": [
    {
      "magFilter": 9729,
      "minFilter": 9987,
      "wrapS": 10497,
      "wrapT": 10497
    }
  ],
  "scene": 0,
  "scenes": [
    {
      "name": "Sketchfab_Scene",
      "nodes": [
        0
      ]
    }
  ],
  "textures": [
    {
      "sampler": 0,
      "source": 0
    },
    {
      "sampler": 0,
      "source": 1
    },
    {
      "sampler": 0,
      "source": 2
    }
  ]
}
